# AST/ASF file generated using VICON BodyLanguage
# -----------------------------------------------
:version 1.10
:name VICON
:units
  mass 1.0
  length 0.45
  angle deg
:documentation
   .ast/.asf automatically generated from VICON data using
   VICON BodyBuilder and BodyLanguage model FoxedUp or BRILLIANT.MOD
:root
   order TX TY TZ RX RY RZ
   axis XYZ
   position 0 0 0  
   orientation 0 0 0 
:bonedata
  begin
     id 1 
     name lhipjoint
     direction 0.570549 -0.739093 0.358072 
     length 2.41801 
     axis 0 0 0  XYZ
  end
  begin
     id 2 
     name lfemur
     direction 0.34202 -0.939693 0  
     length 7.44434  
     axis 0 0 20  XYZ
    dof rx ry rz
    limits (-160.0 20.0)
           (-70.0 70.0)
           (-60.0 70.0)
  end
  begin
     id 3 
     name ltibia
     direction 0.34202 -0.939693 0   
     length 7.60047   
     axis 0 0 20   XYZ
    dof rx
    limits (-10.0 170.0)
  end
  begin
     id 4 
     name lfoot
     direction 0.0909041 -0.249757 0.964032   
     length 2.03437   
     axis -90 7.62852e-016 20   XYZ
    dof rx rz
    limits (-45.0 90.0)
           (-70.0 20.0)
  end
  begin
     id 5 
     name ltoes
     direction 1.53547e-011 -4.2174e-011 1   
     length 1.02054   
     axis -90 7.62852e-016 20   XYZ
    dof rx
    limits (-90.0 20.0)
  end
  begin
     id 6 
     name rhipjoint
     direction -0.558096 -0.746754 0.361784   
     length 2.3932  
     axis 0 0 0  XYZ 
  end
  begin
     id 7 
     name rfemur
     direction -0.34202 -0.939693 0   
     length 7.3886   
     axis 0 0 -20   XYZ
    dof rx ry rz
    limits (-160.0 20.0)
           (-70.0 70.0)
           (-70.0 60.0)
  end
  begin
     id 8 
     name rtibia
     direction -0.34202 -0.939693 0   
     length 7.4839   
     axis 0 0 -20   XYZ
    dof rx
    limits (-10.0 170.0)
 end
 begin
     id 9 
     name rfoot
     direction -0.114619 -0.314914 0.942174   
     length 2.25127  
     axis -90 -7.62852e-016 -20   XYZ
    dof rx rz
    limits (-45.0 90.0)
           (-20.0 70.0)
  end
  begin
     id 10 
     name rtoes
     direction -1.53518e-011 -4.21881e-011 1   
     length 1.11821   
     axis -90 -7.62852e-016 -20   XYZ
    dof rx
    limits (-90.0 20.0)
  end
  begin
     id 11 
     name lowerback
     direction -0.00902269 0.996426 -0.0839821   
     length 2.25052   
     axis 0 0 0   XYZ
    dof rx ry rz
    limits (-20.0 45.0)
           (-30.0 30.0)
           (-30.0 30.0)
  end
  begin
     id 12 
     name upperback
     direction 0.0370973 0.999169 -0.0168941   
     length 2.24876   
     axis 0 0 0   XYZ
    dof rx ry rz
    limits (-20.0 45.0)
           (-30.0 30.0)
           (-30.0 30.0)
  end
  begin
     id 13 
     name thorax
     direction 0.0402726 0.998931 0.0227027   
     length 2.26408   
     axis 0 0 0   XYZ
    dof rx ry rz
    limits (-20.0 45.0)
           (-30.0 30.0)
           (-30.0 30.0)
  end
  begin
     id 14 
     name lowerneck
     direction -0.0733697 0.98508 0.155675   
     length 1.58204   
     axis 0 0 0   XYZ
    dof rx ry rz
    limits (-20.0 45.0)
           (-30.0 30.0)
           (-30.0 30.0)
  end
  begin
     id 15 
     name upperneck
     direction 0.0426554 0.993501 -0.105526   
     length 1.61222   
     axis 0 0 0   XYZ
    dof rx ry rz
    limits (-20.0 45.0)
           (-30.0 30.0)
           (-30.0 30.0)
  end
  begin
     id 16
     name head
     direction 0.020792 0.998384 -0.0528868  
     length 1.61527  
     axis 0 0 0   XYZ
    dof rx ry rz
    limits (-20.0 45.0)
           (-30.0 30.0)
           (-30.0 30.0)
  end
  begin
     id 17 
     name lclavicle
     direction 0.967109 0.155462 -0.201325  
     length 3.59357  
     axis 0 0 0   XYZ
    dof ry rz
    limits (-20.0 10.0)
           (0.0 20.0)
  end
  begin
     id 18 
     name lhumerus
     direction 1 -4.48968e-011 2.38195e-027   
     length 5.38154   
     axis 180 -30 -90   XYZ
    dof rx ry rz
    limits (-60.0 90.0)
           (-90.0 90.0)
           (-90.0 90.0)
  end
  begin
     id 19
     name lradius
     direction 1 -4.48961e-011 4.85371e-027   
     length 3.33312   
     axis 180 -30 -90   XYZ
    dof rx
    limits (-10.0 170.0)
  end
  begin
     id 20
     name lwrist
     direction 1 -4.48961e-011 4.76515e-027   
     length 1.66656   
     axis -3.27502e-015 90 90   XYZ
    dof ry
    limits (-180.0 0.0)
 end
  begin
     id 21 
     name lhand
     direction 1 -4.48951e-011 9.53074e-027   
     length 0.710789   
     axis -6.08098e-015 90 90   XYZ
    dof rx rz
    limits (-90.0 90.0)
           (-45.0 45.0)
  end
  begin
     id 22 
     name lfingers
     direction 1 -4.48953e-011 1.90613e-026   
     length 0.573057   
     axis -1.21619e-014 90 90   XYZ
    dof rx
    limits (0.0 90.0)
  end
  begin
     id 23
     name lthumb
     direction 0.707107 -6.34973e-011 0.707107   
     length 0.822798   
     axis -90 45 -9.86923e-015   XYZ
    dof rx rz
    limits (-45.0 45.0)
           (-45.0 45.0)
  end
  begin
     id 24 
     name rclavicle
     direction -0.9585 0.265289 -0.104398   
     length 3.42039  
     axis 0 0 0   XYZ 
    dof ry rz
    limits (-10.0 20.0)
           (-20.0 0.0)
  end
  begin
     id 25 
     name rhumerus
     direction -1 -4.48977e-011 2.21478e-027  
     length 5.16954   
     axis 180 30 90   XYZ
    dof rx ry rz
    limits (-90.0 60.0)
           (-90.0 90.0)
           (-90.0 90.0)
  end
  begin
     id 26 
     name rradius
     direction -1 -4.48967e-011 5.63677e-027   
     length 3.38287   
     axis 180 30 90   XYZ
    dof rx
    limits (-10.0 170.0)
  end
  begin
     id 27 
     name rwrist
     direction -1 -4.48967e-011 4.76501e-027   
     length 1.69144   
     axis -3.27502e-015 -90 -90   XYZ
    dof ry
    limits (-180.0 0.0)
  end
  begin
     id 28
     name rhand
     direction -1 -4.48902e-011 9.53292e-027   
     length 0.817967   
     axis -6.08098e-015 -90 -90   XYZ
    dof rx rz
    limits (-90.0 90.0)
           (-45.0 45.0)
  end
  begin
     id 29
     name rfingers
     direction -1 -4.49012e-011 1.90561e-026   
     length 0.659466   
     axis -1.21619e-014 -90 -90   XYZ
    dof rx
    limits (0.0 90.0)
  end
  begin
     id 30
     name rthumb
     direction -0.707107 -6.34944e-011 0.707107   
     length 0.946865   
     axis -90 -45 9.86923e-015   XYZ
    dof rx rz
    limits (-45.0 45.0)
           (-45.0 45.0)
  end
:hierarchy
  begin
    root lhipjoint rhipjoint lowerback
    lhipjoint lfemur
    lfemur ltibia
    ltibia lfoot
    lfoot ltoes
    rhipjoint rfemur
    rfemur rtibia
    rtibia rfoot
    rfoot rtoes
    lowerback upperback
    upperback thorax
    thorax lowerneck lclavicle rclavicle
    lowerneck upperneck
    upperneck head
    lclavicle lhumerus
    lhumerus lradius
    lradius lwrist
    lwrist lhand lthumb
    lhand lfingers
    rclavicle rhumerus
    rhumerus rradius
    rradius rwrist
    rwrist rhand rthumb
    rhand rfingers
  end

#!OML:ASF F:\twosubjects\two\wednesday\Session 1\Justin1.ASF
:FULLY-SPECIFIED
:DEGREES
490
root 12.8633 16.3204 -7.24532 -888.805 -9.72478 -525.638
lowerback 14.6091 2.44717 2.93866
upperback 0.913457 3.68438 2.92519
thorax -7.23003 1.62634 0.70965
lowerneck -21.1131 0.916788 -5.34131
upperneck 0.122917 1.22438 8.99158
head 3.27162 0.78893 3.76333
rclavicle -3.73715e-014 -3.97569e-014
rhumerus -16.2597 -11.6314 -37.4247
rradius 36.4839
rwrist -8.07206
rhand -13.9958 25.056
rfingers 7.12502
rthumb 12.1331 -4.57215
lclavicle -3.73715e-014 -3.97569e-014
lhumerus -13.7444 -16.8931 22.1144
lradius 75.0718
lwrist 56.7411
lhand 6.65291 37.9463
lfingers 7.12502
lthumb 31.9452 65.1632
rfemur -26.5805 -4.47964 27.0459
rtibia 47.5582
rfoot -25.7026 -9.76532
rtoes -22.2238
lfemur -40.0978 2.56811 2.01331
ltibia 94.5171
lfoot -8.51905 -17.4698
ltoes -11.1009
491
root 12.8725 16.4438 -7.38496 -888.815 -10.8503 -526.256
lowerback 14.3002 2.41474 2.72665
upperback 0.759663 3.61742 2.71417
thorax -7.22219 1.61231 0.625542
lowerneck -20.2811 1.25682 -4.55761
upperneck -1.24198 1.58213 7.5611
head 2.70788 0.844878 3.18944
rclavicle -2.78299e-015 0
rhumerus -14.9615 -10.7741 -37.4538
rradius 37.3718
rwrist -9.8013
rhand -15.313 25.3838
rfingers 7.12502
rthumb 10.8629 -4.31525
lclavicle -2.78299e-015 0
lhumerus -13.4584 -17.3506 22.4815
lradius 74.9009
lwrist 56.4921
lhand 5.9134 38.2889
lfingers 7.12502
lthumb 31.2408 65.6442
rfemur -24.7971 -4.52379 26.5647
rtibia 45.3243
rfoot -24.8536 -10.3607
rtoes -21.5185
lfemur -41.8214 3.37753 0.239576
ltibia 95.178
lfoot -9.25709 -18.1106
ltoes -11.9209
492
root 12.8689 16.5754 -7.54518 -889.199 -11.8901 -526.468
lowerback 14.0997 2.36982 2.97429
upperback 0.712871 3.59288 2.5842
thorax -7.13603 1.59695 0.360192
lowerneck -20.3243 1.04519 -4.18875
upperneck -1.80733 1.23881 6.92832
head 2.56252 0.622275 2.90207
rclavicle 3.18055e-014 1.59028e-015
rhumerus -13.4004 -10.2723 -37.5113
rradius 37.7455
rwrist -11.3994
rhand -16.5643 26.263
rfingers 7.12502
rthumb 9.6557 -3.49575
lclavicle 3.18055e-014 1.59028e-015
lhumerus -13.4001 -17.9553 22.8034
lradius 74.8623
lwrist 56.5119
lhand 5.37788 39.4243
lfingers 7.12502
lthumb 30.7303 66.8768
rfemur -22.4474 -4.27283 26.37
rtibia 42.9158
rfoot -23.8317 -10.9802
rtoes -22.5127
lfemur -43.0281 4.18018 -1.19928
ltibia 95.5697
lfoot -10.443 -18.7447
ltoes -14.7152
493
root 12.8634 16.7013 -7.68882 -889.475 -12.5737 -526.072
lowerback 13.7968 2.48837 3.58247
upperback 0.595074 3.84173 2.65425
thorax -7.0548 1.70012 0.0561969
lowerneck -20.3888 1.14539 -4.28535
upperneck -2.09441 1.40446 6.71026
head 2.47262 0.687565 2.86086
rclavicle -3.43897e-014 -5.48646e-014
rhumerus -11.8207 -9.72938 -37.47
rradius 38.1735
rwrist -13.3477
rhand -17.915 27.6647
rfingers 7.12502
rthumb 8.35238 -2.15014
lclavicle -3.43897e-014 -5.48646e-014
lhumerus -13.4475 -18.6164 23.3147
lradius 74.8818
lwrist 56.7373
lhand 4.72887 40.7009
lfingers 7.12502
lthumb 30.1113 68.268
rfemur -20.4849 -3.11748 26.7257
rtibia 40.5813
rfoot -22.4824 -11.5788
rtoes -23.4413
lfemur -44.9532 5.51599 -2.06409
ltibia 95.9903
lfoot -11.3428 -19.8279
ltoes -18.5155
494
root 12.8463 16.833 -7.83895 -889.65 -13.4359 -526.111
lowerback 13.4237 2.60676 3.83304
upperback 0.435143 4.03693 2.65131
thorax -6.9957 1.79271 -0.110801
lowerneck -20.1652 1.32245 -4.3787
upperneck -2.36167 1.68598 6.42624
head 2.34158 0.813406 2.80382
rclavicle -2.40529e-014 7.95139e-016
rhumerus -10.5522 -9.34318 -37.3156
rradius 38.7193
rwrist -15.4486
rhand -18.4406 24.699
rfingers 7.12502
rthumb 7.84509 -5.13548
lclavicle -2.40529e-014 7.95139e-016
lhumerus -13.3426 -19.5046 24.0316
lradius 74.8203
lwrist 56.8974
lhand 4.31184 42.1035
lfingers 7.12502
lthumb 29.7134 69.7423
rfemur -18.5899 -2.13027 26.6234
rtibia 38.3205
rfoot -20.9241 -11.8381
rtoes -22.8538
lfemur -46.8812 6.25799 -3.52592
ltibia 96.0462
lfoot -9.6186 -20.9571
ltoes -16.2025
495
root 12.8255 16.9591 -7.99396 -889.884 -14.5035 -526.468
lowerback 13.154 2.62318 3.92168
upperback 0.262971 4.07686 2.51649
thorax -7.01159 1.815 -0.302135
lowerneck -19.3231 1.57552 -3.74383
upperneck -3.13156 1.95132 4.95984
head 2.25958 0.867967 2.46644
rclavicle 8.54774e-015 -9.54166e-015
rhumerus -9.50865 -9.27158 -37.3298
rradius 39.3147
rwrist -17.1052
rhand -18.9681 21.024
rfingers 7.12502
rthumb 7.3359 -8.82882
lclavicle 8.54774e-015 -9.54166e-015
lhumerus -13.3677 -20.7368 24.5243
lradius 74.9086
lwrist 57.1111
lhand 4.06029 43.1915
lfingers 7.12502
lthumb 29.4733 70.8728
rfemur -16.6845 -1.68594 26.3015
rtibia 36.3316
rfoot -19.3406 -12.0808
rtoes -21.9461
lfemur -48.2217 6.46045 -5.21008
ltibia 95.6353
lfoot -8.44694 -22.2509
ltoes -12.4834
496
root 12.7958 17.0873 -8.14586 -890.151 -15.5146 -526.371
lowerback 12.7063 2.57885 4.57147
upperback 0.188623 4.08998 2.39905
thorax -6.78477 1.80666 -0.77019
lowerneck -19.7222 1.33695 -4.20486
upperneck -2.86436 1.73006 5.44411
head 2.43568 0.789533 2.71788
rclavicle 1.61016e-014 7.55382e-014
rhumerus -8.13545 -9.45748 -37.6101
rradius 39.6372
rwrist -18.088
rhand -19.7121 20.3386
rfingers 7.12502
rthumb 6.61778 -9.53795
lclavicle 1.61016e-014 7.55382e-014
lhumerus -13.3237 -21.7268 24.6789
lradius 74.9971
lwrist 57.3697
lhand 3.4518 44.0109
lfingers 7.12502
lthumb 28.8922 71.7932
rfemur -15.104 -1.56942 26.5151
rtibia 34.7008
rfoot -17.551 -12.4384
rtoes -22.306
lfemur -49.6664 6.83508 -6.4554
ltibia 95.014
lfoot -9.21944 -23.4257
ltoes -15.6739
497
root 12.761 17.2152 -8.29533 -890.73 -16.6776 -526.135
lowerback 12.4667 2.38711 5.33609
upperback 0.443279 3.89613 2.40186
thorax -6.33505 1.69601 -1.14031
lowerneck -21.8782 1.43973 -4.87963
upperneck -1.24965 2.00472 6.46899
head 2.9023 1.02415 2.9532
rclavicle 3.99557e-014 7.95139e-015
rhumerus -5.86329 -9.85748 -38.1127
rradius 39.4282
rwrist -18.4137
rhand -20.5561 22.0431
rfingers 7.12502
rthumb 5.80293 -7.85744
lclavicle 3.99557e-014 7.95139e-015
lhumerus -13.2319 -22.0079 24.8942
lradius 74.8814
lwrist 57.393
lhand 3.13564 44.9502
lfingers 7.12502
lthumb 28.5902 72.7837
rfemur -13.565 -1.73183 26.9221
rtibia 33.5488
rfoot -15.5053 -13.0486
rtoes -22.2676
lfemur -50.7935 6.8406 -7.42119
ltibia 94.2304
lfoot -10.3202 -24.3717
ltoes -18.9684
498
root 12.7309 17.3431 -8.44671 -891.539 -17.889 -526.177
lowerback 12.7608 2.12352 5.66987
upperback 0.712627 3.58217 2.43516
thorax -6.21058 1.53173 -1.2444
lowerneck -23.1396 1.56945 -5.48747
upperneck -0.755321 2.31309 6.88805
head 3.20464 1.21278 3.2319
rclavicle 4.75095e-014 -2.78299e-014
rhumerus -3.46974 -9.80602 -38.6098
rradius 39.0455
rwrist -18.7198
rhand -20.9904 22.9577
rfingers 7.12502
rthumb 5.38362 -6.95396
lclavicle 4.75095e-014 -2.78299e-014
lhumerus -13.6138 -22.2862 25.3047
lradius 74.8554
lwrist 57.3129
lhand 3.04104 45.7513
lfingers 7.12502
lthumb 28.4998 73.6
rfemur -11.9123 -2.03676 27.0852
rtibia 32.7473
rfoot -13.1679 -13.7898
rtoes -21.5684
lfemur -51.1921 6.40859 -8.30665
ltibia 93.2187
lfoot -10.0802 -25.5887
ltoes -15.6994
499
root 12.6985 17.4628 -8.59785 -892.11 -18.8742 -526.237
lowerback 12.9289 1.979 5.93227
upperback 0.78569 3.4305 2.42739
thorax -6.21949 1.44811 -1.37809
lowerneck -23.6534 1.65176 -5.94295
upperneck -0.771502 2.53092 7.10129
head 3.24941 1.33174 3.3993
rclavicle 1.11319e-014 2.78299e-015
rhumerus -1.60964 -9.58169 -38.9726
rradius 38.8084
rwrist -18.941
rhand -21.1867 23.3594
rfingers 7.12502
rthumb 5.19408 -6.55694
lclavicle 1.11319e-014 2.78299e-015
lhumerus -14.1419 -22.7398 25.7871
lradius 75.0571
lwrist 57.3081
lhand 2.5684 46.5361
lfingers 7.12502
lthumb 28.0481 74.4596
rfemur -10.6624 -2.42083 27.1694
rtibia 32.1697
rfoot -10.5469 -14.1983
rtoes -21.3683
lfemur -51.5732 6.03674 -9.09215
ltibia 92.0062
lfoot -9.10147 -26.8567
ltoes -10.1933
500
root 12.6558 17.5829 -8.74474 -892.589 -19.7452 -526.056
lowerback 12.8926 1.90263 6.45959
upperback 1.05496 3.36503 2.50817
thorax -5.88961 1.40698 -1.56741
lowerneck -25.6275 1.50318 -6.97143
upperneck 0.0472506 2.6203 7.69384
head 3.75242 1.43141 3.80644
rclavicle 1.74931e-014 3.29983e-014
rhumerus 0.572503 -9.95913 -39.3485
rradius 38.417
rwrist -18.4295
rhand -21.4861 24.2363
rfingers 7.12502
rthumb 4.90502 -5.68691
lclavicle 1.74931e-014 3.29983e-014
lhumerus -14.3753 -22.6477 26.3759
lradius 75.3555
lwrist 57.0747
lhand 2.10276 47.4532
lfingers 7.12502
lthumb 27.6029 75.4487
rfemur -9.80769 -2.89266 27.4172
rtibia 31.7807
rfoot -7.9864 -14.3943
rtoes -19.6766
lfemur -52.1143 5.71027 -9.67314
ltibia 90.616
lfoot -8.52122 -27.6708
ltoes -7.50774
